<svg width="77" height="65" viewBox="0 0 77 65" fill="none" xmlns="http://www.w3.org/2000/svg">
<g clip-path="url(#clip0_33_52)">
<path d="M0.727783 31.75L0.727783 33.25H27.7278V31.75H0.727783Z" fill="white"/>
<path d="M27.7278 26.109C29.2492 20.4309 32.7464 15.4819 37.5905 12.1517C42.4346 8.82153 48.3077 7.32871 54.1541 7.94166C60.0004 8.55462 65.4364 11.2331 69.4844 15.4956C73.5325 19.758 75.9271 25.3248 76.2377 31.1949C76.5484 37.0651 74.7547 42.8535 71.1791 47.5194C67.6037 52.1854 62.4809 55.4227 56.7319 56.6493C50.983 57.876 44.9849 57.0114 39.8164 54.2112C34.6478 51.4108 30.6479 46.8586 28.5356 41.3728" stroke="white" stroke-width="1.5" stroke-linecap="round"/>
<path d="M51.5106 32.8039C41.9964 32.8039 41.157 38.2041 41.157 42.0613C41.157 33.3181 36.12 32.8039 30.2437 32.8039C41.157 32.8039 41.157 26.8894 41.157 23.2892C41.157 31.5181 46.4737 32.8039 51.5106 32.8039Z" fill="white" stroke="white"/>
</g>
<defs>
<clipPath id="clip0_33_52">
<rect width="75.5444" height="63.3859" fill="white" transform="translate(0.727783 0.807007)"/>
</clipPath>
</defs>
</svg>
