<svg width="120" height="41" viewBox="0 0 120 41" fill="none" xmlns="http://www.w3.org/2000/svg">
<path d="M16.5 35C12.1239 35 7.92709 33.2616 4.83274 30.1673C1.73839 27.0729 -1.21734e-07 22.8761 0 18.5C1.21734e-07 14.1239 1.73839 9.92709 4.83274 6.83274C7.92709 3.73839 12.1239 2 16.5 2V10.1179C14.2769 10.1179 12.1449 11.001 10.573 12.573C9.001 14.1449 8.11789 16.2769 8.11789 18.5C8.11789 20.7231 9.001 22.8551 10.573 24.427C12.1449 25.999 14.2769 26.8821 16.5 26.8821V35Z" fill="#296CF2"/>
<g style="mix-blend-mode:difference">
<path d="M23.82 17V3.08H26.96V17H23.82ZM19.4 5.62V2.88H31.38V5.62H19.4ZM32.8534 17V7.28H35.9134V17H32.8534ZM34.3934 5.94C33.9134 5.94 33.5134 5.78 33.1934 5.46C32.8868 5.12667 32.7334 4.72667 32.7334 4.26C32.7334 3.78 32.8868 3.38 33.1934 3.06C33.5134 2.74 33.9134 2.58 34.3934 2.58C34.8734 2.58 35.2668 2.74 35.5734 3.06C35.8801 3.38 36.0334 3.78 36.0334 4.26C36.0334 4.72667 35.8801 5.12667 35.5734 5.46C35.2668 5.78 34.8734 5.94 34.3934 5.94ZM38.0683 17V7.28H41.1283V17H38.0683ZM44.2883 17V11.32C44.2883 10.8267 44.1349 10.4467 43.8283 10.18C43.5349 9.9 43.1683 9.76 42.7283 9.76C42.4216 9.76 42.1483 9.82667 41.9083 9.96C41.6683 10.08 41.4749 10.2533 41.3283 10.48C41.1949 10.7067 41.1283 10.9867 41.1283 11.32L39.9483 10.8C39.9483 10.0267 40.1149 9.36667 40.4483 8.82C40.7816 8.26 41.2349 7.83333 41.8083 7.54C42.3816 7.23333 43.0283 7.08 43.7483 7.08C44.4283 7.08 45.0349 7.23333 45.5683 7.54C46.1149 7.84667 46.5483 8.27333 46.8683 8.82C47.1883 9.36667 47.3483 10.02 47.3483 10.78V17H44.2883ZM50.5083 17V11.32C50.5083 10.8267 50.3549 10.4467 50.0483 10.18C49.7549 9.9 49.3883 9.76 48.9483 9.76C48.6416 9.76 48.3683 9.82667 48.1283 9.96C47.8883 10.08 47.6949 10.2533 47.5483 10.48C47.4149 10.7067 47.3483 10.9867 47.3483 11.32L45.5883 11.08C45.6149 10.2533 45.8083 9.54667 46.1683 8.96C46.5416 8.36 47.0283 7.9 47.6283 7.58C48.2416 7.24667 48.9283 7.08 49.6883 7.08C50.4349 7.08 51.0949 7.24 51.6683 7.56C52.2549 7.86667 52.7149 8.31333 53.0483 8.9C53.3949 9.47333 53.5683 10.1667 53.5683 10.98V17H50.5083ZM55.5292 17V7.28H58.5892V17H55.5292ZM57.0692 5.94C56.5892 5.94 56.1892 5.78 55.8692 5.46C55.5626 5.12667 55.4092 4.72667 55.4092 4.26C55.4092 3.78 55.5626 3.38 55.8692 3.06C56.1892 2.74 56.5892 2.58 57.0692 2.58C57.5492 2.58 57.9426 2.74 58.2492 3.06C58.5559 3.38 58.7092 3.78 58.7092 4.26C58.7092 4.72667 58.5559 5.12667 58.2492 5.46C57.9426 5.78 57.5492 5.94 57.0692 5.94ZM60.7441 17V2.48H63.8041V17H60.7441ZM70.7589 17.22C69.7056 17.22 68.7656 17.0067 67.9389 16.58C67.1256 16.14 66.4856 15.5333 66.0189 14.76C65.5522 13.9867 65.3189 13.1133 65.3189 12.14C65.3189 11.1667 65.5456 10.3 65.9989 9.54C66.4656 8.76667 67.0922 8.16 67.8789 7.72C68.6656 7.28 69.5522 7.06 70.5389 7.06C71.4989 7.06 72.3456 7.26667 73.0789 7.68C73.8122 8.09333 74.3856 8.66667 74.7989 9.4C75.2256 10.1333 75.4389 10.9733 75.4389 11.92C75.4389 12.0933 75.4256 12.28 75.3989 12.48C75.3856 12.6667 75.3522 12.8867 75.2989 13.14L66.9189 13.16V11.06L73.9989 11.04L72.6789 11.92C72.6656 11.36 72.5789 10.9 72.4189 10.54C72.2589 10.1667 72.0189 9.88667 71.6989 9.7C71.3922 9.5 71.0122 9.4 70.5589 9.4C70.0789 9.4 69.6589 9.51333 69.2989 9.74C68.9522 9.95333 68.6789 10.26 68.4789 10.66C68.2922 11.06 68.1989 11.5467 68.1989 12.12C68.1989 12.6933 68.2989 13.1867 68.4989 13.6C68.7122 14 69.0056 14.3133 69.3789 14.54C69.7656 14.7533 70.2189 14.86 70.7389 14.86C71.2189 14.86 71.6522 14.78 72.0389 14.62C72.4256 14.4467 72.7656 14.1933 73.0589 13.86L74.7389 15.54C74.2589 16.1 73.6789 16.52 72.9989 16.8C72.3189 17.08 71.5722 17.22 70.7589 17.22ZM83.3359 17V11.46C83.3359 10.9533 83.1759 10.5467 82.8559 10.24C82.5493 9.92 82.1559 9.76 81.6759 9.76C81.3426 9.76 81.0493 9.83333 80.7959 9.98C80.5426 10.1133 80.3426 10.3133 80.1959 10.58C80.0493 10.8333 79.9759 11.1267 79.9759 11.46L78.7959 10.88C78.7959 10.12 78.9559 9.45333 79.2759 8.88C79.5959 8.30667 80.0426 7.86667 80.6159 7.56C81.1893 7.24 81.8493 7.08 82.5959 7.08C83.3559 7.08 84.0226 7.24 84.5959 7.56C85.1693 7.86667 85.6093 8.3 85.9159 8.86C86.2359 9.40667 86.3959 10.0467 86.3959 10.78V17H83.3359ZM76.9159 17V2.48H79.9759V17H76.9159ZM88.3613 17V7.28H91.4213V17H88.3613ZM89.9013 5.94C89.4213 5.94 89.0213 5.78 88.7013 5.46C88.3946 5.12667 88.2413 4.72667 88.2413 4.26C88.2413 3.78 88.3946 3.38 88.7013 3.06C89.0213 2.74 89.4213 2.58 89.9013 2.58C90.3813 2.58 90.7746 2.74 91.0813 3.06C91.3879 3.38 91.5413 3.78 91.5413 4.26C91.5413 4.72667 91.3879 5.12667 91.0813 5.46C90.7746 5.78 90.3813 5.94 89.9013 5.94ZM99.9961 17V11.46C99.9961 10.9533 99.8361 10.5467 99.5161 10.24C99.2094 9.92 98.8161 9.76 98.3361 9.76C98.0028 9.76 97.7094 9.83333 97.4561 9.98C97.2028 10.1133 97.0028 10.3133 96.8561 10.58C96.7094 10.8333 96.6361 11.1267 96.6361 11.46L95.4561 10.88C95.4561 10.12 95.6228 9.45333 95.9561 8.88C96.2894 8.30667 96.7494 7.86667 97.3361 7.56C97.9361 7.24 98.6094 7.08 99.3561 7.08C100.076 7.08 100.709 7.25333 101.256 7.6C101.816 7.93333 102.256 8.38 102.576 8.94C102.896 9.5 103.056 10.1133 103.056 10.78V17H99.9961ZM93.5761 17V7.28H96.6361V17H93.5761ZM19.3 36L24.9 21.88H27.74L33.28 36H29.96L25.72 24.28H26.86L22.56 36H19.3ZM22.48 33.44V30.88H30.18V33.44H22.48ZM40.2503 36.2C39.597 36.2 38.997 36.0667 38.4503 35.8C37.9036 35.52 37.457 35.1533 37.1103 34.7C36.7636 34.2333 36.5636 33.7133 36.5103 33.14V29.04C36.5636 28.4667 36.7636 27.96 37.1103 27.52C37.457 27.0667 37.9036 26.7133 38.4503 26.46C38.997 26.2067 39.597 26.08 40.2503 26.08C41.1703 26.08 41.9836 26.3 42.6903 26.74C43.4103 27.18 43.9703 27.78 44.3703 28.54C44.7836 29.3 44.9903 30.1667 44.9903 31.14C44.9903 32.1133 44.7836 32.98 44.3703 33.74C43.9703 34.5 43.4103 35.1 42.6903 35.54C41.9836 35.98 41.1703 36.2 40.2503 36.2ZM39.7103 33.44C40.137 33.44 40.5103 33.34 40.8303 33.14C41.1636 32.94 41.4236 32.6667 41.6103 32.32C41.797 31.9733 41.8903 31.58 41.8903 31.14C41.8903 30.6867 41.797 30.2867 41.6103 29.94C41.4236 29.5933 41.1636 29.3267 40.8303 29.14C40.5103 28.94 40.137 28.84 39.7103 28.84C39.2836 28.84 38.9036 28.94 38.5703 29.14C38.237 29.3267 37.977 29.5933 37.7903 29.94C37.617 30.2867 37.5303 30.6867 37.5303 31.14C37.5303 31.5933 37.6236 31.9933 37.8103 32.34C37.997 32.6867 38.2503 32.96 38.5703 33.16C38.9036 33.3467 39.2836 33.44 39.7103 33.44ZM34.6503 36V21.48H37.7103V28.66L37.2103 31.02L37.6703 33.38V36H34.6503ZM51.3448 36.22C50.2915 36.22 49.3515 36.0067 48.5248 35.58C47.7115 35.14 47.0715 34.5333 46.6048 33.76C46.1382 32.9867 45.9048 32.1133 45.9048 31.14C45.9048 30.1667 46.1315 29.3 46.5848 28.54C47.0515 27.7667 47.6782 27.16 48.4648 26.72C49.2515 26.28 50.1382 26.06 51.1248 26.06C52.0848 26.06 52.9315 26.2667 53.6648 26.68C54.3982 27.0933 54.9715 27.6667 55.3848 28.4C55.8115 29.1333 56.0248 29.9733 56.0248 30.92C56.0248 31.0933 56.0115 31.28 55.9848 31.48C55.9715 31.6667 55.9382 31.8867 55.8848 32.14L47.5048 32.16V30.06L54.5848 30.04L53.2648 30.92C53.2515 30.36 53.1648 29.9 53.0048 29.54C52.8448 29.1667 52.6048 28.8867 52.2848 28.7C51.9782 28.5 51.5982 28.4 51.1448 28.4C50.6648 28.4 50.2448 28.5133 49.8848 28.74C49.5382 28.9533 49.2648 29.26 49.0648 29.66C48.8782 30.06 48.7848 30.5467 48.7848 31.12C48.7848 31.6933 48.8848 32.1867 49.0848 32.6C49.2982 33 49.5915 33.3133 49.9648 33.54C50.3515 33.7533 50.8048 33.86 51.3248 33.86C51.8048 33.86 52.2382 33.78 52.6248 33.62C53.0115 33.4467 53.3515 33.1933 53.6448 32.86L55.3248 34.54C54.8448 35.1 54.2648 35.52 53.5848 35.8C52.9048 36.08 52.1582 36.22 51.3448 36.22ZM61.6219 40.36C60.5552 40.36 59.6152 40.1733 58.8019 39.8C58.0019 39.44 57.3685 38.9267 56.9019 38.26L58.7819 36.38C59.1285 36.7933 59.5152 37.1067 59.9419 37.32C60.3819 37.5333 60.9085 37.64 61.5219 37.64C62.2819 37.64 62.8752 37.4533 63.3019 37.08C63.7419 36.7067 63.9619 36.18 63.9619 35.5V33.02L64.4819 30.9L64.0219 28.78V26.28H67.0219V35.42C67.0219 36.42 66.7885 37.2867 66.3219 38.02C65.8552 38.7533 65.2152 39.3267 64.4019 39.74C63.5885 40.1533 62.6619 40.36 61.6219 40.36ZM61.4819 35.7C60.5885 35.7 59.7952 35.4867 59.1019 35.06C58.4085 34.6333 57.8619 34.0533 57.4619 33.32C57.0619 32.5867 56.8619 31.7733 56.8619 30.88C56.8619 29.9733 57.0619 29.16 57.4619 28.44C57.8619 27.7067 58.4085 27.1333 59.1019 26.72C59.7952 26.2933 60.5885 26.08 61.4819 26.08C62.1485 26.08 62.7419 26.2067 63.2619 26.46C63.7952 26.7 64.2219 27.0467 64.5419 27.5C64.8752 27.94 65.0619 28.4533 65.1019 29.04V32.74C65.0619 33.3133 64.8752 33.8267 64.5419 34.28C64.2219 34.72 63.7952 35.0667 63.2619 35.32C62.7285 35.5733 62.1352 35.7 61.4819 35.7ZM62.0619 32.98C62.4885 32.98 62.8552 32.8867 63.1619 32.7C63.4819 32.5133 63.7219 32.2667 63.8819 31.96C64.0552 31.64 64.1419 31.28 64.1419 30.88C64.1419 30.48 64.0552 30.12 63.8819 29.8C63.7219 29.48 63.4819 29.2267 63.1619 29.04C62.8552 28.8533 62.4885 28.76 62.0619 28.76C61.6485 28.76 61.2819 28.8533 60.9619 29.04C60.6419 29.2267 60.3952 29.48 60.2219 29.8C60.0485 30.12 59.9619 30.48 59.9619 30.88C59.9619 31.2533 60.0485 31.6067 60.2219 31.94C60.3952 32.26 60.6352 32.5133 60.9419 32.7C61.2619 32.8867 61.6352 32.98 62.0619 32.98ZM73.5016 36.22C72.6082 36.22 71.8149 36.04 71.1216 35.68C70.4416 35.3067 69.9082 34.8 69.5216 34.16C69.1349 33.5067 68.9416 32.76 68.9416 31.92V26.28H72.0016V31.88C72.0016 32.2133 72.0549 32.5 72.1616 32.74C72.2816 32.98 72.4549 33.1667 72.6816 33.3C72.9082 33.4333 73.1816 33.5 73.5016 33.5C73.9549 33.5 74.3149 33.36 74.5816 33.08C74.8482 32.7867 74.9816 32.3867 74.9816 31.88V26.28H78.0416V31.9C78.0416 32.7533 77.8482 33.5067 77.4616 34.16C77.0749 34.8 76.5416 35.3067 75.8616 35.68C75.1816 36.04 74.3949 36.22 73.5016 36.22ZM86.3828 36V30.46C86.3828 29.9533 86.2228 29.5467 85.9028 29.24C85.5961 28.92 85.2028 28.76 84.7228 28.76C84.3895 28.76 84.0961 28.8333 83.8428 28.98C83.5895 29.1133 83.3895 29.3133 83.2428 29.58C83.0961 29.8333 83.0228 30.1267 83.0228 30.46L81.8428 29.88C81.8428 29.12 82.0095 28.4533 82.3428 27.88C82.6761 27.3067 83.1361 26.8667 83.7228 26.56C84.3228 26.24 84.9961 26.08 85.7428 26.08C86.4628 26.08 87.0961 26.2533 87.6428 26.6C88.2028 26.9333 88.6428 27.38 88.9628 27.94C89.2828 28.5 89.4428 29.1133 89.4428 29.78V36H86.3828ZM79.9628 36V26.28H83.0228V36H79.9628ZM95.5481 36.2C94.6281 36.2 93.8081 35.98 93.0881 35.54C92.3815 35.1 91.8215 34.5 91.4081 33.74C91.0081 32.98 90.8081 32.1133 90.8081 31.14C90.8081 30.1667 91.0081 29.3 91.4081 28.54C91.8215 27.78 92.3815 27.18 93.0881 26.74C93.8081 26.3 94.6281 26.08 95.5481 26.08C96.2148 26.08 96.8148 26.2067 97.3481 26.46C97.8948 26.7133 98.3415 27.0667 98.6881 27.52C99.0481 27.96 99.2481 28.4667 99.2881 29.04V33.14C99.2481 33.7133 99.0548 34.2333 98.7081 34.7C98.3615 35.1533 97.9148 35.52 97.3681 35.8C96.8215 36.0667 96.2148 36.2 95.5481 36.2ZM96.0881 33.44C96.5281 33.44 96.9081 33.3467 97.2281 33.16C97.5481 32.96 97.8015 32.6867 97.9881 32.34C98.1748 31.9933 98.2681 31.5933 98.2681 31.14C98.2681 30.6867 98.1748 30.2933 97.9881 29.96C97.8148 29.6133 97.5615 29.34 97.2281 29.14C96.9081 28.94 96.5348 28.84 96.1081 28.84C95.6815 28.84 95.3015 28.94 94.9681 29.14C94.6481 29.34 94.3881 29.6133 94.1881 29.96C94.0015 30.3067 93.9081 30.7 93.9081 31.14C93.9081 31.58 94.0015 31.9733 94.1881 32.32C94.3748 32.6667 94.6348 32.94 94.9681 33.14C95.3015 33.34 95.6748 33.44 96.0881 33.44ZM101.148 36H98.1481V33.38L98.6081 31.02L98.0881 28.66V21.48H101.148V36ZM108.103 36.22C107.049 36.22 106.109 36.0067 105.283 35.58C104.469 35.14 103.829 34.5333 103.363 33.76C102.896 32.9867 102.663 32.1133 102.663 31.14C102.663 30.1667 102.889 29.3 103.343 28.54C103.809 27.7667 104.436 27.16 105.223 26.72C106.009 26.28 106.896 26.06 107.883 26.06C108.843 26.06 109.689 26.2667 110.423 26.68C111.156 27.0933 111.729 27.6667 112.143 28.4C112.569 29.1333 112.783 29.9733 112.783 30.92C112.783 31.0933 112.769 31.28 112.743 31.48C112.729 31.6667 112.696 31.8867 112.643 32.14L104.263 32.16V30.06L111.343 30.04L110.023 30.92C110.009 30.36 109.923 29.9 109.763 29.54C109.603 29.1667 109.363 28.8867 109.043 28.7C108.736 28.5 108.356 28.4 107.903 28.4C107.423 28.4 107.003 28.5133 106.643 28.74C106.296 28.9533 106.023 29.26 105.823 29.66C105.636 30.06 105.543 30.5467 105.543 31.12C105.543 31.6933 105.643 32.1867 105.843 32.6C106.056 33 106.349 33.3133 106.723 33.54C107.109 33.7533 107.563 33.86 108.083 33.86C108.563 33.86 108.996 33.78 109.383 33.62C109.769 33.4467 110.109 33.1933 110.403 32.86L112.083 34.54C111.603 35.1 111.023 35.52 110.343 35.8C109.663 36.08 108.916 36.22 108.103 36.22Z" fill="white"/>
<path d="M116.18 36.22C115.66 36.22 115.226 36.04 114.88 35.68C114.533 35.32 114.36 34.8867 114.36 34.38C114.36 33.8467 114.533 33.4067 114.88 33.06C115.226 32.7 115.66 32.52 116.18 32.52C116.713 32.52 117.146 32.7 117.48 33.06C117.826 33.4067 118 33.8467 118 34.38C118 34.8867 117.826 35.32 117.48 35.68C117.146 36.04 116.713 36.22 116.18 36.22Z" fill="#296CF2"/>
</g>
</svg>
